
<svg xmlns="http://www.w3.org/2000/svg" width="128" height="40"><g fill="#FFF" fill-rule="evenodd"><path d="M33.118 18.566c-1.24 1.23-1.378 1.352-2.741 1.002l-7.248-1.916c-1.428-.402-1.474-.563-1.927-2.252.96 3.581-1.899-7.186-1.899-7.186-.205-.939-.049-1.207.82-2.094L25.575.668c.888-.845 1.129-.793 2.736-.367 1.192.315 10.429 2.778 6.317 1.677 1.706.457 1.854.499 2.264 1.969l1.83 6.92c.406 1.551.38 1.714-.679 2.782 0-.001-7.209 7.186-4.924 4.917zM28.76 38.741c-1.24 1.231-1.38 1.352-2.742 1.003l-7.247-1.917c-1.43-.402-1.475-.563-1.927-2.252.96 3.581-1.9-7.186-1.9-7.186-.205-.939-.049-1.207.821-2.094l5.45-5.452c.888-.845 1.129-.793 2.736-.367 1.192.315 10.429 2.778 6.317 1.677 1.706.457 1.854.499 2.265 1.969l1.829 6.92c.406 1.551.38 1.714-.678 2.782 0 0-7.21 7.187-4.925 4.917zM13.988 24.755c-1.239 1.231-1.377 1.352-2.74 1.003L4 23.84c-1.429-.402-1.474-.563-1.927-2.252.96 3.58-1.9-7.186-1.9-7.186-.204-.939-.048-1.207.821-2.094l5.45-5.452c.888-.845 1.13-.793 2.737-.367 1.19.315 10.428 2.778 6.316 1.676 1.707.457 1.854.5 2.265 1.97l1.829 6.92c.407 1.551.38 1.714-.679 2.782.001 0-7.209 7.187-4.924 4.917z"/><path fill-rule="nonzero" d="M60.972 15.935c0 .23-.069.46-.207.69l-4.945 6.969v6.302c0 .307-.103.567-.31.782a1.001 1.001 0 0 1-.748.322c-.307 0-.567-.107-.782-.322a1.065 1.065 0 0 1-.322-.782V23.41l-4.922-6.647c-.215-.276-.322-.552-.322-.828 0-.307.123-.567.368-.782.245-.215.514-.322.805-.322.353 0 .652.169.897.506l4.324 5.98 4.163-5.957c.245-.353.552-.529.92-.529.291 0 .544.107.759.322.215.215.322.475.322.782zm4.483 9.545c-.306 0-.567-.103-.782-.31a1.054 1.054 0 0 1-.322-.794.99.99 0 0 1 .322-.759c.215-.2.476-.299.782-.299h4.416c.307 0 .564.103.77.31.208.208.311.472.311.794 0 .307-.103.56-.31.759-.207.2-.464.299-.77.299h-4.417zm9.451 3.634c-.138-.215-.207-.422-.207-.621 0-.307.161-.567.483-.782a.9.9 0 0 1 .53-.161c.275 0 .528.115.758.345.46.521.955.912 1.484 1.173.529.26 1.161.391 1.897.391.583-.015 1.097-.15 1.541-.402.445-.254.667-.664.667-1.231 0-.521-.226-.92-.678-1.196-.402-.245-.97-.472-1.706-.681l-.284-.078c-.858-.23-1.571-.471-2.139-.724a3.833 3.833 0 0 1-1.437-1.104c-.391-.484-.587-1.116-.587-1.898 0-.69.196-1.296.587-1.817.391-.521.912-.928 1.564-1.219a5.153 5.153 0 0 1 2.127-.437 6.16 6.16 0 0 1 2.197.414 4.126 4.126 0 0 1 1.782 1.265c.184.215.276.437.276.667 0 .245-.122.483-.368.713a.827.827 0 0 1-.575.207.862.862 0 0 1-.667-.276 3.236 3.236 0 0 0-1.184-.851 3.92 3.92 0 0 0-1.553-.299c-.582 0-1.077.119-1.483.357-.406.237-.61.64-.61 1.207.016.537.25.935.702 1.196.402.232.995.457 1.779.677l.302.082c.813.215 1.488.445 2.024.69.537.245.99.61 1.357 1.093.368.483.552 1.115.552 1.897 0 .72-.207 1.345-.62 1.875a4.004 4.004 0 0 1-1.622 1.219 5.38 5.38 0 0 1-2.128.425 6.98 6.98 0 0 1-2.679-.506 4.997 4.997 0 0 1-2.082-1.61zM94.34 18.741c2.698 0 4.048 1.671 4.048 5.014v6.141c0 .307-.104.567-.31.782a1.054 1.054 0 0 1-.794.322c-.307 0-.564-.107-.77-.322a1.085 1.085 0 0 1-.311-.782v-6.141c0-1.993-.844-2.99-2.53-2.99-.905 0-1.656.287-2.254.863-.598.575-.897 1.284-.897 2.127v6.141c0 .307-.104.567-.31.782a1.054 1.054 0 0 1-.794.322c-.322 0-.583-.103-.782-.31-.2-.208-.3-.472-.3-.794V15.084c0-.307.104-.567.311-.782.207-.215.464-.322.77-.322.323 0 .587.107.794.322.207.215.31.475.31.782v5.819c.384-.598.92-1.108 1.61-1.53a4.163 4.163 0 0 1 2.209-.632zm11.153 11.155c0 .307-.104.567-.31.782a1.054 1.054 0 0 1-.794.322c-.307 0-.564-.107-.77-.322a1.085 1.085 0 0 1-.311-.782v-9.959c0-.307.103-.567.31-.782.207-.215.464-.322.77-.322.323 0 .587.107.794.322.207.215.31.475.31.782v9.959zm-1.104-12.581c-.445 0-.763-.08-.955-.242-.191-.16-.287-.417-.287-.77v-.368c0-.368.103-.629.31-.782.207-.153.526-.23.955-.23.43 0 .74.08.931.242.192.16.288.417.288.77v.368c0 .368-.1.629-.3.782-.198.153-.513.23-.942.23zm11.176-1.357c-.506 0-.878.153-1.115.46-.238.307-.357.682-.357 1.127v1.61h2.277c.307 0 .556.096.748.287a.982.982 0 0 1 .287.725.944.944 0 0 1-.287.713c-.192.184-.441.276-.748.276h-2.277v8.74c0 .307-.103.567-.31.782a1.054 1.054 0 0 1-.794.322c-.307 0-.563-.107-.77-.322a1.085 1.085 0 0 1-.31-.782v-8.74h-1.427c-.291 0-.537-.092-.736-.276a.926.926 0 0 1-.299-.713c0-.291.1-.533.3-.725a1.02 1.02 0 0 1 .735-.287h1.426v-1.61c0-1.073.345-1.928 1.035-2.565.69-.636 1.664-.954 2.921-.954.521 0 .981.096 1.38.287.399.192.598.48.598.863 0 .291-.088.533-.264.724a.83.83 0 0 1-.633.288c-.061 0-.23-.03-.506-.092a3.398 3.398 0 0 0-.874-.138zm8.922 5.129v6.854c0 .767.345 1.15 1.035 1.15.08 0 .183-.015.307-.045l.13-.035c.184-.054.33-.081.437-.081.2 0 .368.084.506.253.138.169.207.383.207.644 0 .322-.184.598-.552.828-.368.23-.782.345-1.242.345-.506 0-.97-.054-1.391-.161-.422-.107-.797-.38-1.127-.816-.33-.438-.495-1.1-.495-1.99v-6.946h-1.334a.982.982 0 0 1-1.012-1.012c0-.291.096-.529.288-.713.192-.184.433-.276.724-.276h1.334v-1.932c0-.307.104-.567.31-.782.208-.215.472-.322.794-.322.307 0 .564.107.77.322.208.215.311.475.311.782v1.932h1.91a.982.982 0 0 1 1.011 1.012.944.944 0 0 1-.287.713 1.004 1.004 0 0 1-.725.276h-1.909z"/></g></svg>